<svg width="250" height="250" viewBox="0 0 250 250" fill="none" xmlns="http://www.w3.org/2000/svg">
<circle cx="125" cy="125" r="125" fill="#E9E9EC"/>
<path d="M125.277 35.0013C119.084 34.9441 113.034 36.8023 107.895 40.311C102.755 43.8207 98.7696 48.8149 96.4084 54.6323C94.048 60.4479 93.4063 66.8488 94.5555 73.0312C95.7048 79.2145 98.6004 84.9337 102.909 89.4512C107.22 93.9712 112.755 97.0853 118.824 98.3587C124.895 99.6325 131.191 98.9985 136.901 96.5483C142.608 94.0994 147.448 89.9586 150.834 84.689C154.215 79.4272 156.004 73.2637 156 66.9781C156.019 62.8291 155.253 58.7116 153.74 54.8586C152.225 50.9993 149.988 47.4736 147.145 44.4887C144.301 41.5034 140.907 39.1172 137.149 37.4784C133.358 35.8247 129.318 35.0204 125.277 35.0013Z" stroke="#999999" stroke-width="12"/>
<path d="M47.0005 201.358L47.0006 201.344V201.331V178.323V178.31L47.0005 178.296C46.9359 163.899 53.1873 149.932 64.6118 139.506C76.0534 129.065 91.7268 123.071 108.213 123H141.787C158.273 123.071 173.947 129.065 185.388 139.506C196.813 149.932 203.064 163.899 203 178.296L202.999 178.31V178.323V201.331V201.344L203 201.358C203.001 201.587 202.907 201.942 202.511 202.305C202.097 202.684 201.419 202.99 200.598 203H49.4219C49.0254 202.997 48.6453 202.924 48.3074 202.796C47.9672 202.667 47.6949 202.493 47.4925 202.308C47.2913 202.124 47.1676 201.94 47.0963 201.782C47.026 201.627 46.9999 201.485 47.0005 201.358Z" stroke="#999999" stroke-width="12"/>
</svg>
