<svg width="28" height="28" viewBox="0 0 28 28" fill="none" xmlns="http://www.w3.org/2000/svg">
<g clip-path="url(#clip0_5148_48426)">
<path d="M19.0675 22.9857V21.3945C19.0675 21.055 19.0675 20.7161 19.0675 20.3781C19.0675 20.3273 19.0563 20.311 19.0014 20.311C17.9396 20.311 16.8777 20.311 15.8163 20.3141C15.7585 20.3141 15.7417 20.3019 15.7422 20.2419C15.7452 19.8598 15.7447 19.4796 15.7422 19.0959C15.7422 19.0451 15.7564 19.0375 15.8021 19.0375C16.8638 19.0375 17.9257 19.0383 18.9877 19.04C19.0482 19.04 19.0593 19.0238 19.0588 18.9669C19.0588 17.8979 19.058 16.829 19.0563 15.7601C19.0563 15.7062 19.068 15.689 19.1254 15.6895C19.5066 15.6925 19.8883 15.6925 20.2705 15.6895C20.3213 15.6895 20.332 15.7037 20.332 15.753C20.332 16.8238 20.332 17.8945 20.3294 18.9653C20.3294 19.0228 20.3457 19.0339 20.399 19.0334C21.24 19.0334 22.0806 19.0334 22.9209 19.0334C22.9468 19.0334 22.9717 19.037 22.9991 19.039V20.3034C22.9659 20.3235 22.9265 20.3305 22.8884 20.3232H20.4686C20.4343 20.3184 20.3995 20.322 20.367 20.3339C20.3401 20.3583 20.3487 20.3908 20.3487 20.4203C20.3487 21.2365 20.3487 22.0528 20.3487 22.8693C20.3487 22.9918 20.3487 22.9918 20.2279 22.9918C19.8622 22.9918 19.4971 22.9918 19.132 22.9918C19.1106 22.9933 19.0873 23.002 19.0675 22.9857Z" fill="#212224"/>
<path d="M5.01863 9.62159H5.00592C5.00592 8.09969 5.00592 6.57729 5.00592 5.05438C5.00592 5.03659 4.9917 5.01321 5.01711 5C5.02257 5.00612 5.02687 5.01318 5.02981 5.02084C5.037 5.04834 5.03941 5.07688 5.03692 5.1052C5.03692 6.5756 5.03692 8.04583 5.03692 9.51588C5.04437 9.55217 5.03784 9.58992 5.01863 9.62159Z" fill="#212224"/>
<path d="M5.01758 5.01321V5H9.5992V5.01271C9.56784 5.03215 9.53024 5.03888 9.49408 5.03151H5.12778C5.09004 5.03905 5.05086 5.03254 5.01758 5.01321Z" fill="#212224"/>
<path d="M5.01856 20.292H5.00586V15.707H5.01856C5.03799 15.7384 5.04489 15.776 5.03788 15.8122C5.03788 16.2527 5.03788 16.6931 5.03788 17.1336C5.03788 18.1469 5.03788 19.1601 5.03788 20.1731C5.04615 20.2138 5.03928 20.2561 5.01856 20.292Z" fill="#212224"/>
<path d="M20.3451 20.3027V22.9962H19.0645L19.068 22.9815C19.4238 22.9815 19.7754 22.9815 20.1286 22.9815C20.1952 22.9815 20.2811 23.0104 20.3223 22.9693C20.3634 22.9281 20.3324 22.8458 20.3324 22.7812C20.3324 21.9766 20.3324 21.1718 20.3324 20.3668C20.3329 20.3495 20.3207 20.3236 20.3451 20.3027Z" fill="#212224"/>
<path d="M18.0257 5.01758C18.7732 5.01758 19.5206 5.01758 20.2678 5.01758C20.3231 5.01758 20.3323 5.03333 20.3323 5.08415C20.3323 6.57217 20.3323 8.06001 20.3323 9.54769C20.3323 9.6041 20.3155 9.61172 20.2652 9.61172C19.8874 9.60901 19.5097 9.60901 19.1323 9.61172C19.0739 9.61172 19.0556 9.60206 19.0556 9.53803C19.0581 8.47945 19.0556 7.42035 19.0586 6.36126C19.0586 6.30689 19.0464 6.29164 18.9901 6.29164C17.9201 6.29164 16.8496 6.29164 15.7796 6.29469C15.7187 6.29469 15.7085 6.27792 15.709 6.22151C15.712 5.84391 15.709 5.46581 15.709 5.08771C15.709 5.03384 15.7197 5.01758 15.7771 5.01758C16.5263 5.01859 17.2758 5.01859 18.0257 5.01758Z" fill="#212224"/>
<path d="M5.01822 5.01367H5.069H9.59782C9.59782 5.42023 9.59782 5.83035 9.60087 6.23895C9.60087 6.27808 9.5836 6.2796 9.55313 6.2796C9.35 6.2796 9.14687 6.2796 8.94374 6.2796C8.0784 6.2796 7.2134 6.2796 6.34873 6.2796C6.29389 6.2796 6.28373 6.29383 6.28373 6.34618C6.28373 7.41679 6.28373 8.48774 6.28373 9.55903C6.28373 9.61391 6.27154 9.62865 6.21568 9.62814C5.83583 9.62814 5.45394 9.62814 5.07662 9.62814C5.05631 9.62814 5.036 9.62814 5.01568 9.6256C5.01568 8.101 5.01568 6.57521 5.01568 5.04823C5.01517 5.034 5.01822 5.02384 5.01822 5.01367Z" fill="#212224"/>
<path d="M5.01758 20.2921V15.7076L6.18101 15.7051C6.28258 15.7051 6.28258 15.7051 6.28258 15.8093C6.28258 16.8575 6.28258 17.9061 6.28258 18.955C6.28258 19.013 6.29883 19.0231 6.35215 19.0231C7.42266 19.0231 8.49282 19.0231 9.56265 19.0231C9.61343 19.0231 9.63019 19.0323 9.63019 19.0877C9.62714 19.4719 9.63019 19.8561 9.63019 20.2403C9.63019 20.2769 9.63019 20.2977 9.57941 20.2977C8.06641 20.2977 6.55359 20.2977 5.04094 20.2977C5.03129 20.2942 5.02316 20.2926 5.01758 20.2921Z" fill="#212224"/>
<path d="M12.6744 6.30158C12.1565 6.30158 11.6386 6.30158 11.121 6.30158C11.0733 6.30158 11.0601 6.2904 11.0606 6.24162C11.0626 5.85606 11.0626 5.47 11.0606 5.08342C11.0606 5.0326 11.0727 5.02295 11.121 5.02346C12.1583 5.02346 13.1958 5.02346 14.2335 5.02346C14.2797 5.02346 14.2898 5.03514 14.2898 5.08037C14.2878 5.46627 14.2878 5.85233 14.2898 6.23857C14.2898 6.28939 14.2792 6.30209 14.2274 6.30209C13.7099 6.30057 13.1919 6.30158 12.6744 6.30158Z" fill="#212224"/>
<path d="M5.01758 12.6287C5.01758 12.1111 5.01758 11.593 5.01758 11.0747C5.01758 11.0279 5.02723 11.0132 5.07704 11.0137C5.46259 11.0157 5.84849 11.0157 6.23472 11.0137C6.28198 11.0137 6.29164 11.0269 6.29164 11.0716C6.29164 12.1121 6.29164 13.1524 6.29164 14.1925C6.29164 14.2352 6.28097 14.2433 6.24082 14.2433C5.85255 14.2433 5.46446 14.2433 5.07653 14.2433C5.03181 14.2433 5.01961 14.2336 5.01961 14.1874C5.01758 13.668 5.01758 13.1481 5.01758 12.6287Z" fill="#212224"/>
<path d="M19.0586 12.6293C19.0586 12.1134 19.0586 11.5971 19.0586 11.0813C19.0586 11.0305 19.0698 11.0132 19.1247 11.0137C19.5068 11.0167 19.887 11.0162 20.2707 11.0137C20.3184 11.0137 20.3357 11.0208 20.3352 11.0747C20.3352 12.1131 20.3352 13.1513 20.3352 14.1894C20.3352 14.2342 20.325 14.2458 20.2793 14.2453C19.891 14.2433 19.5029 14.2433 19.115 14.2453C19.0698 14.2453 19.0586 14.2352 19.0586 14.1894C19.0591 13.6685 19.0586 13.1486 19.0586 12.6293Z" fill="#212224"/>
<path d="M12.6671 19.0137C13.1844 19.0137 13.7021 19.0137 14.2201 19.0137C14.2683 19.0137 14.28 19.0259 14.28 19.0736C14.278 19.4592 14.278 19.8453 14.28 20.2318C14.28 20.2781 14.2678 20.2877 14.2231 20.2877C13.1858 20.2877 12.1483 20.2877 11.1106 20.2877C11.0664 20.2877 11.0527 20.2776 11.0527 20.2313C11.0548 19.8451 11.0548 19.459 11.0527 19.0731C11.0527 19.0223 11.068 19.0137 11.1142 19.0137C11.6318 19.0147 12.1495 19.0147 12.6671 19.0137Z" fill="#212224"/>
</g>
<defs>
<clipPath id="clip0_5148_48426">
<rect width="18" height="18" fill="white" transform="translate(5 5)"/>
</clipPath>
</defs>
</svg>
