<svg width="28" height="28" viewBox="0 0 28 28" fill="none" xmlns="http://www.w3.org/2000/svg">
<g filter="url(#filter0_ii_5148_48390)">
<path d="M0 0H28V28H0V0Z" fill="#D9D9D9"/>
<path fill-rule="evenodd" clip-rule="evenodd" d="M6.98364 17.7331C8.1544 18.5555 9.54993 18.9975 10.9806 18.9991C11.4215 20.1997 12.1828 21.2565 13.182 22.0548C14.1811 22.8531 15.3799 23.3625 16.6481 23.5276C17.9163 23.6926 19.2056 23.5071 20.3758 22.9911C21.546 22.4751 22.5525 21.6484 23.2859 20.6007C24.0194 19.553 24.4519 18.3244 24.5363 17.0483C24.6207 15.7722 24.354 14.4973 23.7649 13.3621C23.1759 12.2269 22.2871 11.2748 21.1951 10.6091C20.1031 9.9434 18.8496 9.58961 17.5706 9.58613C17.1918 8.55496 16.5756 7.62742 15.7719 6.87854C14.9681 6.12967 13.9994 5.58047 12.9441 5.27537C11.8887 4.97028 10.7764 4.91785 9.69704 5.12233C8.61768 5.32682 7.6016 5.78247 6.73099 6.45243C5.86037 7.1224 5.15966 7.98786 4.68553 8.97883C4.2114 9.96981 3.97716 11.0585 4.00176 12.1567C4.02635 13.255 4.3091 14.3321 4.82712 15.3008C5.34514 16.2696 6.0839 17.1028 6.98364 17.7331ZM8.13064 16.0931C8.84895 16.5978 9.68801 16.9035 10.5626 16.9791C10.4724 15.4102 10.915 13.8569 11.8186 12.5711C12.718 11.2825 14.0265 10.3356 15.5316 9.88413C15.2072 9.18939 14.7274 8.57856 14.1292 8.09887C13.5311 7.61919 12.8306 7.28349 12.082 7.11775C11.3334 6.95201 10.5567 6.96065 9.81193 7.14302C9.06719 7.32539 8.37437 7.67659 7.78703 8.16948C7.1997 8.66237 6.73359 9.28373 6.42474 9.98552C6.11589 10.6873 5.97258 11.4507 6.00589 12.2168C6.0392 12.9828 6.24824 13.7309 6.61684 14.4032C6.98544 15.0755 7.50373 15.6541 8.13164 16.0941L8.13064 16.0931ZM20.4206 12.4901C19.7022 11.9858 18.8632 11.6805 17.9886 11.6051C18.0789 13.174 17.6363 14.7274 16.7326 16.0131C15.8333 17.3018 14.5248 18.2486 13.0196 18.7001C13.344 19.3949 13.8239 20.0057 14.422 20.4854C15.0202 20.9651 15.7207 21.3008 16.4693 21.4665C17.2179 21.6323 17.9946 21.6236 18.7393 21.4412C19.4841 21.2589 20.1769 20.9077 20.7642 20.4148C21.3516 19.9219 21.8177 19.3005 22.1265 18.5988C22.4354 17.897 22.5787 17.1335 22.5454 16.3675C22.5121 15.6015 22.303 14.8534 21.9344 14.1811C21.5658 13.5087 21.0475 12.9302 20.4196 12.4901H20.4206Z" fill="#3B5D7C"/>
</g>
<defs>
<filter id="filter0_ii_5148_48390" x="-2" y="-2" width="32" height="32" filterUnits="userSpaceOnUse" color-interpolation-filters="sRGB">
<feFlood flood-opacity="0" result="BackgroundImageFix"/>
<feBlend mode="normal" in="SourceGraphic" in2="BackgroundImageFix" result="shape"/>
<feColorMatrix in="SourceAlpha" type="matrix" values="0 0 0 0 0 0 0 0 0 0 0 0 0 0 0 0 0 0 127 0" result="hardAlpha"/>
<feOffset dx="2" dy="2"/>
<feGaussianBlur stdDeviation="1"/>
<feComposite in2="hardAlpha" operator="arithmetic" k2="-1" k3="1"/>
<feColorMatrix type="matrix" values="0 0 0 0 0 0 0 0 0 0 0 0 0 0 0 0 0 0 0.1 0"/>
<feBlend mode="normal" in2="shape" result="effect1_innerShadow_5148_48390"/>
<feColorMatrix in="SourceAlpha" type="matrix" values="0 0 0 0 0 0 0 0 0 0 0 0 0 0 0 0 0 0 127 0" result="hardAlpha"/>
<feOffset dx="-2" dy="-2"/>
<feGaussianBlur stdDeviation="1"/>
<feComposite in2="hardAlpha" operator="arithmetic" k2="-1" k3="1"/>
<feColorMatrix type="matrix" values="0 0 0 0 0 0 0 0 0 0 0 0 0 0 0 0 0 0 0.1 0"/>
<feBlend mode="normal" in2="effect1_innerShadow_5148_48390" result="effect2_innerShadow_5148_48390"/>
</filter>
</defs>
</svg>
